<?xml version="1.0" encoding="UTF-8" standalone="no"?>
<!DOCTYPE svg PUBLIC "-//W3C//DTD SVG 1.1//EN"
 "http://www.w3.org/Graphics/SVG/1.1/DTD/svg11.dtd">
<!-- Generated by graphviz version 3.0.0 (20220226.1711)
 -->
<!-- Title: dependency&#45;cruiser output Pages: 1 -->
<svg width="799pt" height="740pt"
 viewBox="0.00 0.00 799.00 740.00" xmlns="http://www.w3.org/2000/svg" xmlns:xlink="http://www.w3.org/1999/xlink">
<g id="graph0" class="graph" transform="scale(1 1) rotate(0) translate(4 736)">
<title>dependency&#45;cruiser output</title>
<polygon fill="white" stroke="transparent" points="-4,4 -4,-736 795,-736 795,4 -4,4"/>
<g id="clust1" class="cluster">
<title>cluster_api</title>
<path fill="#ffffff" stroke="black" stroke-width="2" d="M74,-8C74,-8 771,-8 771,-8 777,-8 783,-14 783,-20 783,-20 783,-712 783,-712 783,-718 777,-724 771,-724 771,-724 74,-724 74,-724 68,-724 62,-718 62,-712 62,-712 62,-20 62,-20 62,-14 68,-8 74,-8"/>
<text text-anchor="middle" x="422.5" y="-712.8" font-family="Helvetica,sans-Serif" font-weight="bold" font-size="9.00">api</text>
</g>
<g id="clust7" class="cluster">
<title>cluster_api/testDescriptor</title>
<path fill="#ffffff" stroke="black" stroke-width="2" d="M449,-616C449,-616 673,-616 673,-616 679,-616 685,-622 685,-628 685,-628 685,-686 685,-686 685,-692 679,-698 673,-698 673,-698 449,-698 449,-698 443,-698 437,-692 437,-686 437,-686 437,-628 437,-628 437,-622 443,-616 449,-616"/>
<text text-anchor="middle" x="561" y="-686.8" font-family="Helvetica,sans-Serif" font-weight="bold" font-size="9.00">testDescriptor</text>
</g>
<g id="clust2" class="cluster">
<title>cluster_api/item</title>
<path fill="#ffffff" stroke="black" stroke-width="2" d="M468.5,-286C468.5,-286 653.5,-286 653.5,-286 659.5,-286 665.5,-292 665.5,-298 665.5,-298 665.5,-356 665.5,-356 665.5,-362 659.5,-368 653.5,-368 653.5,-368 468.5,-368 468.5,-368 462.5,-368 456.5,-362 456.5,-356 456.5,-356 456.5,-298 456.5,-298 456.5,-292 462.5,-286 468.5,-286"/>
<text text-anchor="middle" x="561" y="-356.8" font-family="Helvetica,sans-Serif" font-weight="bold" font-size="9.00">item</text>
</g>
<g id="clust3" class="cluster">
<title>cluster_api/order</title>
<path fill="#ffffff" stroke="black" stroke-width="2" d="M82,-466C82,-466 541,-466 541,-466 547,-466 553,-472 553,-478 553,-478 553,-596 553,-596 553,-602 547,-608 541,-608 541,-608 82,-608 82,-608 76,-608 70,-602 70,-596 70,-596 70,-478 70,-478 70,-472 76,-466 82,-466"/>
<text text-anchor="middle" x="311.5" y="-596.8" font-family="Helvetica,sans-Serif" font-weight="bold" font-size="9.00">order</text>
</g>
<g id="clust4" class="cluster">
<title>cluster_api/position</title>
<path fill="#ffffff" stroke="black" stroke-width="2" d="M461,-106C461,-106 661,-106 661,-106 667,-106 673,-112 673,-118 673,-118 673,-176 673,-176 673,-182 667,-188 661,-188 661,-188 461,-188 461,-188 455,-188 449,-182 449,-176 449,-176 449,-118 449,-118 449,-112 455,-106 461,-106"/>
<text text-anchor="middle" x="561" y="-176.8" font-family="Helvetica,sans-Serif" font-weight="bold" font-size="9.00">position</text>
</g>
<g id="clust5" class="cluster">
<title>cluster_api/sku</title>
<path fill="#ffffff" stroke="black" stroke-width="2" d="M596,-16C596,-16 763,-16 763,-16 769,-16 775,-22 775,-28 775,-28 775,-86 775,-86 775,-92 769,-98 763,-98 763,-98 596,-98 596,-98 590,-98 584,-92 584,-86 584,-86 584,-28 584,-28 584,-22 590,-16 596,-16"/>
<text text-anchor="middle" x="679.5" y="-86.8" font-family="Helvetica,sans-Serif" font-weight="bold" font-size="9.00">sku</text>
</g>
<g id="clust6" class="cluster">
<title>cluster_api/sku_item</title>
<path fill="#ffffff" stroke="black" stroke-width="2" d="M458.5,-196C458.5,-196 663.5,-196 663.5,-196 669.5,-196 675.5,-202 675.5,-208 675.5,-208 675.5,-266 675.5,-266 675.5,-272 669.5,-278 663.5,-278 663.5,-278 458.5,-278 458.5,-278 452.5,-278 446.5,-272 446.5,-266 446.5,-266 446.5,-208 446.5,-208 446.5,-202 452.5,-196 458.5,-196"/>
<text text-anchor="middle" x="561" y="-266.8" font-family="Helvetica,sans-Serif" font-weight="bold" font-size="9.00">sku_item</text>
</g>
<g id="clust8" class="cluster">
<title>cluster_api/testResult</title>
<path fill="#ffffff" stroke="black" stroke-width="2" d="M333,-376C333,-376 539.5,-376 539.5,-376 545.5,-376 551.5,-382 551.5,-388 551.5,-388 551.5,-446 551.5,-446 551.5,-452 545.5,-458 539.5,-458 539.5,-458 333,-458 333,-458 327,-458 321,-452 321,-446 321,-446 321,-388 321,-388 321,-382 327,-376 333,-376"/>
<text text-anchor="middle" x="436.25" y="-446.8" font-family="Helvetica,sans-Serif" font-weight="bold" font-size="9.00">testResult</text>
</g>
<g id="clust9" class="cluster">
<title>cluster_api/user</title>
<path fill="#ffffff" stroke="black" stroke-width="2" d="M98.5,-376C98.5,-376 279,-376 279,-376 285,-376 291,-382 291,-388 291,-388 291,-446 291,-446 291,-452 285,-458 279,-458 279,-458 98.5,-458 98.5,-458 92.5,-458 86.5,-452 86.5,-446 86.5,-446 86.5,-388 86.5,-388 86.5,-382 92.5,-376 98.5,-376"/>
<text text-anchor="middle" x="188.75" y="-446.8" font-family="Helvetica,sans-Serif" font-weight="bold" font-size="9.00">user</text>
</g>
<!-- api/item/APIitem.js -->
<g id="node1" class="node">
<title>api/item/APIitem.js</title>
<g id="a_node1"><a xlink:href="api/item/APIitem.js" xlink:title="APIitem.js">
<path fill="#ffffcc" stroke="black" d="M515.5,-318C515.5,-318 470.5,-318 470.5,-318 467.5,-318 464.5,-315 464.5,-312 464.5,-312 464.5,-306 464.5,-306 464.5,-303 467.5,-300 470.5,-300 470.5,-300 515.5,-300 515.5,-300 518.5,-300 521.5,-303 521.5,-306 521.5,-306 521.5,-312 521.5,-312 521.5,-315 518.5,-318 515.5,-318"/>
<text text-anchor="start" x="472.5" y="-306.8" font-family="Helvetica,sans-Serif" font-size="9.00">APIitem.js</text>
</a>
</g>
</g>
<!-- api/item/item_dao.js -->
<g id="node2" class="node">
<title>api/item/item_dao.js</title>
<g id="a_node2"><a xlink:href="api/item/item_dao.js" xlink:title="item_dao.js">
<path fill="#ffffcc" stroke="black" d="M645,-342C645,-342 593,-342 593,-342 590,-342 587,-339 587,-336 587,-336 587,-330 587,-330 587,-327 590,-324 593,-324 593,-324 645,-324 645,-324 648,-324 651,-327 651,-330 651,-330 651,-336 651,-336 651,-339 648,-342 645,-342"/>
<text text-anchor="start" x="595" y="-330.8" font-family="Helvetica,sans-Serif" font-size="9.00">item_dao.js</text>
</a>
</g>
</g>
<!-- api/item/APIitem.js&#45;&gt;api/item/item_dao.js -->
<g id="edge1" class="edge">
<title>api/item/APIitem.js&#45;&gt;api/item/item_dao.js</title>
<path fill="none" stroke="#000000" stroke-width="2" stroke-opacity="0.200000" d="M521.52,-314.33C538.83,-317.68 561.39,-322.04 580.35,-325.71"/>
<polygon fill="#000000" fill-opacity="0.200000" stroke="#000000" stroke-width="2" stroke-opacity="0.200000" points="580.33,-327.85 586.62,-326.93 581.13,-323.73 580.33,-327.85"/>
</g>
<!-- api/item/item_service.js -->
<g id="node3" class="node">
<title>api/item/item_service.js</title>
<g id="a_node3"><a xlink:href="api/item/item_service.js" xlink:title="item_service.js">
<path fill="#ffffcc" stroke="black" d="M651.5,-312C651.5,-312 586.5,-312 586.5,-312 583.5,-312 580.5,-309 580.5,-306 580.5,-306 580.5,-300 580.5,-300 580.5,-297 583.5,-294 586.5,-294 586.5,-294 651.5,-294 651.5,-294 654.5,-294 657.5,-297 657.5,-300 657.5,-300 657.5,-306 657.5,-306 657.5,-309 654.5,-312 651.5,-312"/>
<text text-anchor="start" x="588.5" y="-300.8" font-family="Helvetica,sans-Serif" font-size="9.00">item_service.js</text>
</a>
</g>
</g>
<!-- api/item/APIitem.js&#45;&gt;api/item/item_service.js -->
<g id="edge2" class="edge">
<title>api/item/APIitem.js&#45;&gt;api/item/item_service.js</title>
<path fill="none" stroke="#000000" stroke-width="2" stroke-opacity="0.200000" d="M521.52,-307.67C536.9,-306.92 556.43,-305.98 573.88,-305.13"/>
<polygon fill="#000000" fill-opacity="0.200000" stroke="#000000" stroke-width="2" stroke-opacity="0.200000" points="574.32,-307.22 580.21,-304.83 574.12,-303.02 574.32,-307.22"/>
</g>
<!-- api/sku/sku_dao.js -->
<g id="node4" class="node">
<title>api/sku/sku_dao.js</title>
<g id="a_node4"><a xlink:href="api/sku/sku_dao.js" xlink:title="sku_dao.js">
<path fill="#ffffcc" stroke="black" d="M754.5,-72C754.5,-72 705.5,-72 705.5,-72 702.5,-72 699.5,-69 699.5,-66 699.5,-66 699.5,-60 699.5,-60 699.5,-57 702.5,-54 705.5,-54 705.5,-54 754.5,-54 754.5,-54 757.5,-54 760.5,-57 760.5,-60 760.5,-60 760.5,-66 760.5,-66 760.5,-69 757.5,-72 754.5,-72"/>
<text text-anchor="start" x="707.5" y="-60.8" font-family="Helvetica,sans-Serif" font-size="9.00">sku_dao.js</text>
</a>
</g>
</g>
<!-- api/item/item_service.js&#45;&gt;api/sku/sku_dao.js -->
<g id="edge3" class="edge">
<title>api/item/item_service.js&#45;&gt;api/sku/sku_dao.js</title>
<path fill="none" stroke="#000000" stroke-width="2" stroke-opacity="0.200000" d="M657.61,-297.4C667.78,-294.16 677.92,-289.05 685,-281 711.87,-250.47 724.32,-122.54 727.88,-78.2"/>
<polygon fill="#000000" fill-opacity="0.200000" stroke="#000000" stroke-width="2" stroke-opacity="0.200000" points="729.98,-78.21 728.36,-72.06 725.8,-77.88 729.98,-78.21"/>
</g>
<!-- api/order/APIInternalOrder.js -->
<g id="node5" class="node">
<title>api/order/APIInternalOrder.js</title>
<g id="a_node5"><a xlink:href="api/order/APIInternalOrder.js" xlink:title="APIInternalOrder.js">
<path fill="#ffffcc" stroke="black" d="M282.5,-492C282.5,-492 200.5,-492 200.5,-492 197.5,-492 194.5,-489 194.5,-486 194.5,-486 194.5,-480 194.5,-480 194.5,-477 197.5,-474 200.5,-474 200.5,-474 282.5,-474 282.5,-474 285.5,-474 288.5,-477 288.5,-480 288.5,-480 288.5,-486 288.5,-486 288.5,-489 285.5,-492 282.5,-492"/>
<text text-anchor="start" x="202.5" y="-480.8" font-family="Helvetica,sans-Serif" font-size="9.00">APIInternalOrder.js</text>
</a>
</g>
</g>
<!-- api/order/internal_order_service.js -->
<g id="node6" class="node">
<title>api/order/internal_order_service.js</title>
<g id="a_node6"><a xlink:href="api/order/internal_order_service.js" xlink:title="internal_order_service.js">
<path fill="#ffffcc" stroke="black" d="M422,-492C422,-492 316,-492 316,-492 313,-492 310,-489 310,-486 310,-486 310,-480 310,-480 310,-477 313,-474 316,-474 316,-474 422,-474 422,-474 425,-474 428,-477 428,-480 428,-480 428,-486 428,-486 428,-489 425,-492 422,-492"/>
<text text-anchor="start" x="318" y="-480.8" font-family="Helvetica,sans-Serif" font-size="9.00">internal_order_service.js</text>
</a>
</g>
</g>
<!-- api/order/APIInternalOrder.js&#45;&gt;api/order/internal_order_service.js -->
<g id="edge4" class="edge">
<title>api/order/APIInternalOrder.js&#45;&gt;api/order/internal_order_service.js</title>
<path fill="none" stroke="#000000" stroke-width="2" stroke-opacity="0.200000" d="M288.52,-483C293.34,-483 298.3,-483 303.28,-483"/>
<polygon fill="#000000" fill-opacity="0.200000" stroke="#000000" stroke-width="2" stroke-opacity="0.200000" points="303.59,-485.1 309.59,-483 303.59,-480.9 303.59,-485.1"/>
</g>
<!-- api/order/order_dao.js -->
<g id="node7" class="node">
<title>api/order/order_dao.js</title>
<g id="a_node7"><a xlink:href="api/order/order_dao.js" xlink:title="order_dao.js">
<path fill="#ffffcc" stroke="black" d="M397,-536C397,-536 341,-536 341,-536 338,-536 335,-533 335,-530 335,-530 335,-524 335,-524 335,-521 338,-518 341,-518 341,-518 397,-518 397,-518 400,-518 403,-521 403,-524 403,-524 403,-530 403,-530 403,-533 400,-536 397,-536"/>
<text text-anchor="start" x="343" y="-524.8" font-family="Helvetica,sans-Serif" font-size="9.00">order_dao.js</text>
</a>
</g>
</g>
<!-- api/order/APIInternalOrder.js&#45;&gt;api/order/order_dao.js -->
<g id="edge5" class="edge">
<title>api/order/APIInternalOrder.js&#45;&gt;api/order/order_dao.js</title>
<path fill="none" stroke="#000000" stroke-width="2" stroke-opacity="0.200000" d="M277.87,-492.07C284.28,-493.9 290.87,-495.91 297,-498 312.08,-503.14 328.58,-509.81 341.87,-515.46"/>
<polygon fill="#000000" fill-opacity="0.200000" stroke="#000000" stroke-width="2" stroke-opacity="0.200000" points="341.4,-517.54 347.74,-517.97 343.05,-513.68 341.4,-517.54"/>
</g>
<!-- api/order/product_order_dao.js -->
<g id="node10" class="node">
<title>api/order/product_order_dao.js</title>
<g id="a_node10"><a xlink:href="api/order/product_order_dao.js" xlink:title="product_order_dao.js">
<path fill="#ffffcc" stroke="black" d="M539,-516C539,-516 447,-516 447,-516 444,-516 441,-513 441,-510 441,-510 441,-504 441,-504 441,-501 444,-498 447,-498 447,-498 539,-498 539,-498 542,-498 545,-501 545,-504 545,-504 545,-510 545,-510 545,-513 542,-516 539,-516"/>
<text text-anchor="start" x="449" y="-504.8" font-family="Helvetica,sans-Serif" font-size="9.00">product_order_dao.js</text>
</a>
</g>
</g>
<!-- api/order/internal_order_service.js&#45;&gt;api/order/product_order_dao.js -->
<g id="edge8" class="edge">
<title>api/order/internal_order_service.js&#45;&gt;api/order/product_order_dao.js</title>
<path fill="none" stroke="#000000" stroke-width="2" stroke-opacity="0.200000" d="M415.78,-492C423.64,-493.55 431.87,-495.17 439.89,-496.75"/>
<polygon fill="#000000" fill-opacity="0.200000" stroke="#000000" stroke-width="2" stroke-opacity="0.200000" points="439.68,-498.85 445.97,-497.94 440.49,-494.73 439.68,-498.85"/>
</g>
<!-- api/order/order_dao.js&#45;&gt;api/order/product_order_dao.js -->
<g id="edge9" class="edge">
<title>api/order/order_dao.js&#45;&gt;api/order/product_order_dao.js</title>
<path fill="none" stroke="#000000" stroke-width="2" stroke-opacity="0.200000" d="M403.01,-521.59C412.78,-519.99 423.77,-518.19 434.6,-516.41"/>
<polygon fill="#000000" fill-opacity="0.200000" stroke="#000000" stroke-width="2" stroke-opacity="0.200000" points="435.01,-518.47 440.6,-515.43 434.33,-514.33 435.01,-518.47"/>
</g>
<!-- api/order/APIRestockOrder.js -->
<g id="node8" class="node">
<title>api/order/APIRestockOrder.js</title>
<g id="a_node8"><a xlink:href="api/order/APIRestockOrder.js" xlink:title="APIRestockOrder.js">
<path fill="#ffffcc" stroke="black" d="M283.5,-582C283.5,-582 199.5,-582 199.5,-582 196.5,-582 193.5,-579 193.5,-576 193.5,-576 193.5,-570 193.5,-570 193.5,-567 196.5,-564 199.5,-564 199.5,-564 283.5,-564 283.5,-564 286.5,-564 289.5,-567 289.5,-570 289.5,-570 289.5,-576 289.5,-576 289.5,-579 286.5,-582 283.5,-582"/>
<text text-anchor="start" x="201.5" y="-570.8" font-family="Helvetica,sans-Serif" font-size="9.00">APIRestockOrder.js</text>
</a>
</g>
</g>
<!-- api/order/APIRestockOrder.js&#45;&gt;api/order/order_dao.js -->
<g id="edge6" class="edge">
<title>api/order/APIRestockOrder.js&#45;&gt;api/order/order_dao.js</title>
<path fill="none" stroke="#000000" stroke-width="2" stroke-opacity="0.200000" d="M285.57,-563.92C289.58,-562.26 293.47,-560.31 297,-558 304.67,-552.99 302.29,-546.95 310,-542 315.7,-538.34 322.24,-535.58 328.84,-533.48"/>
<polygon fill="#000000" fill-opacity="0.200000" stroke="#000000" stroke-width="2" stroke-opacity="0.200000" points="329.71,-535.42 334.89,-531.74 328.55,-531.38 329.71,-535.42"/>
</g>
<!-- api/order/restock_order_service.js -->
<g id="node9" class="node">
<title>api/order/restock_order_service.js</title>
<g id="a_node9"><a xlink:href="api/order/restock_order_service.js" xlink:title="restock_order_service.js">
<path fill="#ffffcc" stroke="black" d="M421,-566C421,-566 317,-566 317,-566 314,-566 311,-563 311,-560 311,-560 311,-554 311,-554 311,-551 314,-548 317,-548 317,-548 421,-548 421,-548 424,-548 427,-551 427,-554 427,-554 427,-560 427,-560 427,-563 424,-566 421,-566"/>
<text text-anchor="start" x="319" y="-554.8" font-family="Helvetica,sans-Serif" font-size="9.00">restock_order_service.js</text>
</a>
</g>
</g>
<!-- api/order/APIRestockOrder.js&#45;&gt;api/order/restock_order_service.js -->
<g id="edge7" class="edge">
<title>api/order/APIRestockOrder.js&#45;&gt;api/order/restock_order_service.js</title>
<path fill="none" stroke="#000000" stroke-width="2" stroke-opacity="0.200000" d="M289.59,-567C294.59,-566.36 299.73,-565.7 304.87,-565.05"/>
<polygon fill="#000000" fill-opacity="0.200000" stroke="#000000" stroke-width="2" stroke-opacity="0.200000" points="305.22,-567.12 310.9,-564.28 304.69,-562.95 305.22,-567.12"/>
</g>
<!-- api/order/restock_order_service.js&#45;&gt;api/item/item_dao.js -->
<g id="edge10" class="edge">
<title>api/order/restock_order_service.js&#45;&gt;api/item/item_dao.js</title>
<path fill="none" stroke="#000000" stroke-width="2" stroke-opacity="0.200000" d="M415.39,-566.02C455.9,-571.32 514.61,-571.89 553,-541 613.47,-492.35 618.76,-388.11 618.48,-348.61"/>
<polygon fill="#000000" fill-opacity="0.200000" stroke="#000000" stroke-width="2" stroke-opacity="0.200000" points="620.58,-348.39 618.39,-342.43 616.38,-348.46 620.58,-348.39"/>
</g>
<!-- api/order/restock_order_service.js&#45;&gt;api/order/product_order_dao.js -->
<g id="edge13" class="edge">
<title>api/order/restock_order_service.js&#45;&gt;api/order/product_order_dao.js</title>
<path fill="none" stroke="#000000" stroke-width="2" stroke-opacity="0.200000" d="M414.97,-547.96C419.51,-546.29 423.94,-544.32 428,-542 432.91,-539.19 432.37,-536.26 437,-533 444.79,-527.52 453.92,-522.67 462.47,-518.69"/>
<polygon fill="#000000" fill-opacity="0.200000" stroke="#000000" stroke-width="2" stroke-opacity="0.200000" points="463.67,-520.45 468.28,-516.08 461.95,-516.62 463.67,-520.45"/>
</g>
<!-- api/sku_item/sku_item_dao.js -->
<g id="node11" class="node">
<title>api/sku_item/sku_item_dao.js</title>
<g id="a_node11"><a xlink:href="api/sku_item/sku_item_dao.js" xlink:title="sku_item_dao.js">
<path fill="#ffffcc" stroke="black" d="M654.5,-252C654.5,-252 583.5,-252 583.5,-252 580.5,-252 577.5,-249 577.5,-246 577.5,-246 577.5,-240 577.5,-240 577.5,-237 580.5,-234 583.5,-234 583.5,-234 654.5,-234 654.5,-234 657.5,-234 660.5,-237 660.5,-240 660.5,-240 660.5,-246 660.5,-246 660.5,-249 657.5,-252 654.5,-252"/>
<text text-anchor="start" x="585.5" y="-240.8" font-family="Helvetica,sans-Serif" font-size="9.00">sku_item_dao.js</text>
</a>
</g>
</g>
<!-- api/order/restock_order_service.js&#45;&gt;api/sku_item/sku_item_dao.js -->
<g id="edge11" class="edge">
<title>api/order/restock_order_service.js&#45;&gt;api/sku_item/sku_item_dao.js</title>
<path fill="none" stroke="#000000" stroke-width="2" stroke-opacity="0.200000" d="M408.9,-547.95C418.1,-545.9 427.88,-543.81 437,-542 462.66,-536.92 535.82,-541.72 553,-522 570.46,-501.97 548.35,-306.37 561,-283 567.58,-270.85 579.64,-261.57 590.99,-255.03"/>
<polygon fill="#000000" fill-opacity="0.200000" stroke="#000000" stroke-width="2" stroke-opacity="0.200000" points="592.21,-256.75 596.47,-252.04 590.2,-253.07 592.21,-256.75"/>
</g>
<!-- api/testResult/testResult_dao.js -->
<g id="node12" class="node">
<title>api/testResult/testResult_dao.js</title>
<g id="a_node12"><a xlink:href="api/testResult/testResult_dao.js" xlink:title="testResult_dao.js">
<path fill="#ffffcc" stroke="black" d="M530.5,-432C530.5,-432 455.5,-432 455.5,-432 452.5,-432 449.5,-429 449.5,-426 449.5,-426 449.5,-420 449.5,-420 449.5,-417 452.5,-414 455.5,-414 455.5,-414 530.5,-414 530.5,-414 533.5,-414 536.5,-417 536.5,-420 536.5,-420 536.5,-426 536.5,-426 536.5,-429 533.5,-432 530.5,-432"/>
<text text-anchor="start" x="457.5" y="-420.8" font-family="Helvetica,sans-Serif" font-size="9.00">testResult_dao.js</text>
</a>
</g>
</g>
<!-- api/order/restock_order_service.js&#45;&gt;api/testResult/testResult_dao.js -->
<g id="edge12" class="edge">
<title>api/order/restock_order_service.js&#45;&gt;api/testResult/testResult_dao.js</title>
<path fill="none" stroke="#000000" stroke-width="2" stroke-opacity="0.200000" d="M421.27,-547.9C423.75,-546.23 426.02,-544.28 428,-542 451.18,-515.33 419.2,-493.53 437,-463 443.9,-451.17 455.84,-441.84 466.84,-435.19"/>
<polygon fill="#000000" fill-opacity="0.200000" stroke="#000000" stroke-width="2" stroke-opacity="0.200000" points="467.98,-436.95 472.13,-432.13 465.89,-433.31 467.98,-436.95"/>
</g>
<!-- api/order/return_oder_dao.js -->
<g id="node13" class="node">
<title>api/order/return_oder_dao.js</title>
<g id="a_node13"><a xlink:href="api/order/return_oder_dao.js" xlink:title="return_oder_dao.js">
<path fill="#ffffcc" stroke="black" d="M283,-522C283,-522 200,-522 200,-522 197,-522 194,-519 194,-516 194,-516 194,-510 194,-510 194,-507 197,-504 200,-504 200,-504 283,-504 283,-504 286,-504 289,-507 289,-510 289,-510 289,-516 289,-516 289,-519 286,-522 283,-522"/>
<text text-anchor="start" x="202" y="-510.8" font-family="Helvetica,sans-Serif" font-size="9.00">return_oder_dao.js</text>
</a>
</g>
</g>
<!-- api/order/return_order_api.js -->
<g id="node14" class="node">
<title>api/order/return_order_api.js</title>
<g id="a_node14"><a xlink:href="api/order/return_order_api.js" xlink:title="return_order_api.js">
<path fill="#ffffcc" stroke="black" d="M167,-522C167,-522 84,-522 84,-522 81,-522 78,-519 78,-516 78,-516 78,-510 78,-510 78,-507 81,-504 84,-504 84,-504 167,-504 167,-504 170,-504 173,-507 173,-510 173,-510 173,-516 173,-516 173,-519 170,-522 167,-522"/>
<text text-anchor="start" x="86" y="-510.8" font-family="Helvetica,sans-Serif" font-size="9.00">return_order_api.js</text>
</a>
</g>
</g>
<!-- api/order/return_order_api.js&#45;&gt;api/order/return_oder_dao.js -->
<g id="edge14" class="edge">
<title>api/order/return_order_api.js&#45;&gt;api/order/return_oder_dao.js</title>
<path fill="none" stroke="#000000" stroke-width="2" stroke-opacity="0.200000" d="M173.2,-513C177.95,-513 182.81,-513 187.62,-513"/>
<polygon fill="#000000" fill-opacity="0.200000" stroke="#000000" stroke-width="2" stroke-opacity="0.200000" points="187.69,-515.1 193.69,-513 187.69,-510.9 187.69,-515.1"/>
</g>
<!-- api/order/return_order_service.js -->
<g id="node15" class="node">
<title>api/order/return_order_service.js</title>
<g id="a_node15"><a xlink:href="api/order/return_order_service.js" xlink:title="return_order_service.js">
<path fill="#ffffcc" stroke="black" d="M291,-552C291,-552 192,-552 192,-552 189,-552 186,-549 186,-546 186,-546 186,-540 186,-540 186,-537 189,-534 192,-534 192,-534 291,-534 291,-534 294,-534 297,-537 297,-540 297,-540 297,-546 297,-546 297,-549 294,-552 291,-552"/>
<text text-anchor="start" x="194" y="-540.8" font-family="Helvetica,sans-Serif" font-size="9.00">return_order_service.js</text>
</a>
</g>
</g>
<!-- api/order/return_order_api.js&#45;&gt;api/order/return_order_service.js -->
<g id="edge15" class="edge">
<title>api/order/return_order_api.js&#45;&gt;api/order/return_order_service.js</title>
<path fill="none" stroke="#000000" stroke-width="2" stroke-opacity="0.200000" d="M160.7,-522C173.1,-525.26 187.22,-528.98 200.11,-532.37"/>
<polygon fill="#000000" fill-opacity="0.200000" stroke="#000000" stroke-width="2" stroke-opacity="0.200000" points="199.59,-534.41 205.93,-533.9 200.66,-530.34 199.59,-534.41"/>
</g>
<!-- api/order/return_order_service.js&#45;&gt;api/order/order_dao.js -->
<g id="edge16" class="edge">
<title>api/order/return_order_service.js&#45;&gt;api/order/order_dao.js</title>
<path fill="none" stroke="#000000" stroke-width="2" stroke-opacity="0.200000" d="M297.18,-536.03C307.79,-534.68 318.72,-533.28 328.71,-532.01"/>
<polygon fill="#000000" fill-opacity="0.200000" stroke="#000000" stroke-width="2" stroke-opacity="0.200000" points="329.12,-534.07 334.81,-531.23 328.59,-529.91 329.12,-534.07"/>
</g>
<!-- api/order/return_order_service.js&#45;&gt;api/order/product_order_dao.js -->
<g id="edge17" class="edge">
<title>api/order/return_order_service.js&#45;&gt;api/order/product_order_dao.js</title>
<path fill="none" stroke="#000000" stroke-width="2" stroke-opacity="0.200000" d="M285.57,-533.92C289.58,-532.26 293.47,-530.31 297,-528 304.67,-522.99 301.78,-516.05 310,-512 331.19,-501.56 389.68,-501.6 434.69,-503.45"/>
<polygon fill="#000000" fill-opacity="0.200000" stroke="#000000" stroke-width="2" stroke-opacity="0.200000" points="434.86,-505.56 440.94,-503.72 435.04,-501.36 434.86,-505.56"/>
</g>
<!-- api/position/APIposition.js -->
<g id="node16" class="node">
<title>api/position/APIposition.js</title>
<g id="a_node16"><a xlink:href="api/position/APIposition.js" xlink:title="APIposition.js">
<path fill="#ffffcc" stroke="black" d="M523,-162C523,-162 463,-162 463,-162 460,-162 457,-159 457,-156 457,-156 457,-150 457,-150 457,-147 460,-144 463,-144 463,-144 523,-144 523,-144 526,-144 529,-147 529,-150 529,-150 529,-156 529,-156 529,-159 526,-162 523,-162"/>
<text text-anchor="start" x="465" y="-150.8" font-family="Helvetica,sans-Serif" font-size="9.00">APIposition.js</text>
</a>
</g>
</g>
<!-- api/position/position_dao.js -->
<g id="node17" class="node">
<title>api/position/position_dao.js</title>
<g id="a_node17"><a xlink:href="api/position/position_dao.js" xlink:title="position_dao.js">
<path fill="#ffffcc" stroke="black" d="M652.5,-132C652.5,-132 585.5,-132 585.5,-132 582.5,-132 579.5,-129 579.5,-126 579.5,-126 579.5,-120 579.5,-120 579.5,-117 582.5,-114 585.5,-114 585.5,-114 652.5,-114 652.5,-114 655.5,-114 658.5,-117 658.5,-120 658.5,-120 658.5,-126 658.5,-126 658.5,-129 655.5,-132 652.5,-132"/>
<text text-anchor="start" x="587.5" y="-120.8" font-family="Helvetica,sans-Serif" font-size="9.00">position_dao.js</text>
</a>
</g>
</g>
<!-- api/position/APIposition.js&#45;&gt;api/position/position_dao.js -->
<g id="edge18" class="edge">
<title>api/position/APIposition.js&#45;&gt;api/position/position_dao.js</title>
<path fill="none" stroke="#000000" stroke-width="2" stroke-opacity="0.200000" d="M529.2,-144.48C543.36,-141.06 559.83,-137.07 574.71,-133.47"/>
<polygon fill="#000000" fill-opacity="0.200000" stroke="#000000" stroke-width="2" stroke-opacity="0.200000" points="575.21,-135.51 580.54,-132.06 574.22,-131.43 575.21,-135.51"/>
</g>
<!-- api/position/position_service.js -->
<g id="node18" class="node">
<title>api/position/position_service.js</title>
<g id="a_node18"><a xlink:href="api/position/position_service.js" xlink:title="position_service.js">
<path fill="#ffffcc" stroke="black" d="M659,-162C659,-162 579,-162 579,-162 576,-162 573,-159 573,-156 573,-156 573,-150 573,-150 573,-147 576,-144 579,-144 579,-144 659,-144 659,-144 662,-144 665,-147 665,-150 665,-150 665,-156 665,-156 665,-159 662,-162 659,-162"/>
<text text-anchor="start" x="581" y="-150.8" font-family="Helvetica,sans-Serif" font-size="9.00">position_service.js</text>
</a>
</g>
</g>
<!-- api/position/APIposition.js&#45;&gt;api/position/position_service.js -->
<g id="edge19" class="edge">
<title>api/position/APIposition.js&#45;&gt;api/position/position_service.js</title>
<path fill="none" stroke="#000000" stroke-width="2" stroke-opacity="0.200000" d="M529.2,-153C540.89,-153 554.16,-153 566.8,-153"/>
<polygon fill="#000000" fill-opacity="0.200000" stroke="#000000" stroke-width="2" stroke-opacity="0.200000" points="566.95,-155.1 572.95,-153 566.95,-150.9 566.95,-155.1"/>
</g>
<!-- api/position/position_service.js&#45;&gt;api/sku/sku_dao.js -->
<g id="edge20" class="edge">
<title>api/position/position_service.js&#45;&gt;api/sku/sku_dao.js</title>
<path fill="none" stroke="#000000" stroke-width="2" stroke-opacity="0.200000" d="M665.1,-147.64C672.2,-145.42 679.12,-142.32 685,-138 705.48,-122.96 718.05,-95.27 724.26,-78.07"/>
<polygon fill="#000000" fill-opacity="0.200000" stroke="#000000" stroke-width="2" stroke-opacity="0.200000" points="726.29,-78.61 726.26,-72.25 722.32,-77.24 726.29,-78.61"/>
</g>
<!-- api/sku/APIsku.js -->
<g id="node19" class="node">
<title>api/sku/APIsku.js</title>
<g id="a_node19"><a xlink:href="api/sku/APIsku.js" xlink:title="APIsku.js">
<path fill="#ffffcc" stroke="black" d="M640,-72C640,-72 598,-72 598,-72 595,-72 592,-69 592,-66 592,-66 592,-60 592,-60 592,-57 595,-54 598,-54 598,-54 640,-54 640,-54 643,-54 646,-57 646,-60 646,-60 646,-66 646,-66 646,-69 643,-72 640,-72"/>
<text text-anchor="start" x="600" y="-60.8" font-family="Helvetica,sans-Serif" font-size="9.00">APIsku.js</text>
</a>
</g>
</g>
<!-- api/sku/APIsku.js&#45;&gt;api/sku/sku_dao.js -->
<g id="edge21" class="edge">
<title>api/sku/APIsku.js&#45;&gt;api/sku/sku_dao.js</title>
<path fill="none" stroke="#000000" stroke-width="2" stroke-opacity="0.200000" d="M646.11,-63C660.11,-63 677.57,-63 692.85,-63"/>
<polygon fill="#000000" fill-opacity="0.200000" stroke="#000000" stroke-width="2" stroke-opacity="0.200000" points="693.25,-65.1 699.25,-63 693.25,-60.9 693.25,-65.1"/>
</g>
<!-- api/sku/sku_service.js -->
<g id="node20" class="node">
<title>api/sku/sku_service.js</title>
<g id="a_node20"><a xlink:href="api/sku/sku_service.js" xlink:title="sku_service.js">
<path fill="#ffffcc" stroke="black" d="M761,-42C761,-42 699,-42 699,-42 696,-42 693,-39 693,-36 693,-36 693,-30 693,-30 693,-27 696,-24 699,-24 699,-24 761,-24 761,-24 764,-24 767,-27 767,-30 767,-30 767,-36 767,-36 767,-39 764,-42 761,-42"/>
<text text-anchor="start" x="701" y="-30.8" font-family="Helvetica,sans-Serif" font-size="9.00">sku_service.js</text>
</a>
</g>
</g>
<!-- api/sku/APIsku.js&#45;&gt;api/sku/sku_service.js -->
<g id="edge22" class="edge">
<title>api/sku/APIsku.js&#45;&gt;api/sku/sku_service.js</title>
<path fill="none" stroke="#000000" stroke-width="2" stroke-opacity="0.200000" d="M646.11,-55.81C659.22,-52.2 675.38,-47.76 689.94,-43.75"/>
<polygon fill="#000000" fill-opacity="0.200000" stroke="#000000" stroke-width="2" stroke-opacity="0.200000" points="690.84,-45.68 696.07,-42.06 689.73,-41.63 690.84,-45.68"/>
</g>
<!-- api/sku/sku_service.js&#45;&gt;api/position/position_dao.js -->
<g id="edge23" class="edge">
<title>api/sku/sku_service.js&#45;&gt;api/position/position_dao.js</title>
<path fill="none" stroke="#000000" stroke-width="2" stroke-opacity="0.200000" d="M699.26,-42.22C696.89,-43.85 694.75,-45.76 693,-48 678.34,-66.78 700.29,-82.74 685,-101 679.64,-107.41 672.33,-111.95 664.56,-115.18"/>
<polygon fill="#000000" fill-opacity="0.200000" stroke="#000000" stroke-width="2" stroke-opacity="0.200000" points="663.44,-113.35 658.54,-117.4 664.9,-117.29 663.44,-113.35"/>
</g>
<!-- api/testDescriptor/testDescriptor_dao.js -->
<g id="node21" class="node">
<title>api/testDescriptor/testDescriptor_dao.js</title>
<g id="a_node21"><a xlink:href="api/testDescriptor/testDescriptor_dao.js" xlink:title="testDescriptor_dao.js">
<path fill="#ffffcc" stroke="black" d="M664.5,-642C664.5,-642 573.5,-642 573.5,-642 570.5,-642 567.5,-639 567.5,-636 567.5,-636 567.5,-630 567.5,-630 567.5,-627 570.5,-624 573.5,-624 573.5,-624 664.5,-624 664.5,-624 667.5,-624 670.5,-627 670.5,-630 670.5,-630 670.5,-636 670.5,-636 670.5,-639 667.5,-642 664.5,-642"/>
<text text-anchor="start" x="575.5" y="-630.8" font-family="Helvetica,sans-Serif" font-size="9.00">testDescriptor_dao.js</text>
</a>
</g>
</g>
<!-- api/sku/sku_service.js&#45;&gt;api/testDescriptor/testDescriptor_dao.js -->
<g id="edge24" class="edge">
<title>api/sku/sku_service.js&#45;&gt;api/testDescriptor/testDescriptor_dao.js</title>
<path fill="none" stroke="#000000" stroke-width="2" stroke-opacity="0.200000" d="M698.96,-42C696.66,-43.67 694.61,-45.65 693,-48 682.86,-62.81 687.4,-353.21 685,-371 672.11,-466.67 637.88,-578 625,-617.86"/>
<polygon fill="#000000" fill-opacity="0.200000" stroke="#000000" stroke-width="2" stroke-opacity="0.200000" points="622.98,-617.27 623.12,-623.63 626.97,-618.57 622.98,-617.27"/>
</g>
<!-- api/sku_item/APIsku_item.js -->
<g id="node22" class="node">
<title>api/sku_item/APIsku_item.js</title>
<g id="a_node22"><a xlink:href="api/sku_item/APIsku_item.js" xlink:title="APIsku_item.js">
<path fill="#ffffcc" stroke="black" d="M525.5,-252C525.5,-252 460.5,-252 460.5,-252 457.5,-252 454.5,-249 454.5,-246 454.5,-246 454.5,-240 454.5,-240 454.5,-237 457.5,-234 460.5,-234 460.5,-234 525.5,-234 525.5,-234 528.5,-234 531.5,-237 531.5,-240 531.5,-240 531.5,-246 531.5,-246 531.5,-249 528.5,-252 525.5,-252"/>
<text text-anchor="start" x="462.5" y="-240.8" font-family="Helvetica,sans-Serif" font-size="9.00">APIsku_item.js</text>
</a>
</g>
</g>
<!-- api/sku_item/APIsku_item.js&#45;&gt;api/sku_item/sku_item_dao.js -->
<g id="edge25" class="edge">
<title>api/sku_item/APIsku_item.js&#45;&gt;api/sku_item/sku_item_dao.js</title>
<path fill="none" stroke="#000000" stroke-width="2" stroke-opacity="0.200000" d="M531.54,-243C543.91,-243 557.84,-243 570.83,-243"/>
<polygon fill="#000000" fill-opacity="0.200000" stroke="#000000" stroke-width="2" stroke-opacity="0.200000" points="571.13,-245.1 577.13,-243 571.13,-240.9 571.13,-245.1"/>
</g>
<!-- api/sku_item/sku_item_service.js -->
<g id="node23" class="node">
<title>api/sku_item/sku_item_service.js</title>
<g id="a_node23"><a xlink:href="api/sku_item/sku_item_service.js" xlink:title="sku_item_service.js">
<path fill="#ffffcc" stroke="black" d="M661.5,-222C661.5,-222 576.5,-222 576.5,-222 573.5,-222 570.5,-219 570.5,-216 570.5,-216 570.5,-210 570.5,-210 570.5,-207 573.5,-204 576.5,-204 576.5,-204 661.5,-204 661.5,-204 664.5,-204 667.5,-207 667.5,-210 667.5,-210 667.5,-216 667.5,-216 667.5,-219 664.5,-222 661.5,-222"/>
<text text-anchor="start" x="578.5" y="-210.8" font-family="Helvetica,sans-Serif" font-size="9.00">sku_item_service.js</text>
</a>
</g>
</g>
<!-- api/sku_item/APIsku_item.js&#45;&gt;api/sku_item/sku_item_service.js -->
<g id="edge26" class="edge">
<title>api/sku_item/APIsku_item.js&#45;&gt;api/sku_item/sku_item_service.js</title>
<path fill="none" stroke="#000000" stroke-width="2" stroke-opacity="0.200000" d="M531.2,-234C544.81,-230.71 560.33,-226.95 574.44,-223.54"/>
<polygon fill="#000000" fill-opacity="0.200000" stroke="#000000" stroke-width="2" stroke-opacity="0.200000" points="575.06,-225.55 580.39,-222.1 574.07,-221.47 575.06,-225.55"/>
</g>
<!-- api/sku_item/sku_item_service.js&#45;&gt;api/sku/sku_dao.js -->
<g id="edge27" class="edge">
<title>api/sku_item/sku_item_service.js&#45;&gt;api/sku/sku_dao.js</title>
<path fill="none" stroke="#000000" stroke-width="2" stroke-opacity="0.200000" d="M664.72,-203.94C672.19,-200.82 679.34,-196.63 685,-191 716.48,-159.67 725.46,-104.84 728,-78.28"/>
<polygon fill="#000000" fill-opacity="0.200000" stroke="#000000" stroke-width="2" stroke-opacity="0.200000" points="730.11,-78.33 728.52,-72.17 725.92,-77.97 730.11,-78.33"/>
</g>
<!-- api/testDescriptor/APItestDescriptor.js -->
<g id="node24" class="node">
<title>api/testDescriptor/APItestDescriptor.js</title>
<g id="a_node24"><a xlink:href="api/testDescriptor/APItestDescriptor.js" xlink:title="APItestDescriptor.js">
<path fill="#ffffcc" stroke="black" d="M535,-642C535,-642 451,-642 451,-642 448,-642 445,-639 445,-636 445,-636 445,-630 445,-630 445,-627 448,-624 451,-624 451,-624 535,-624 535,-624 538,-624 541,-627 541,-630 541,-630 541,-636 541,-636 541,-639 538,-642 535,-642"/>
<text text-anchor="start" x="453" y="-630.8" font-family="Helvetica,sans-Serif" font-size="9.00">APItestDescriptor.js</text>
</a>
</g>
</g>
<!-- api/testDescriptor/APItestDescriptor.js&#45;&gt;api/testDescriptor/testDescriptor_dao.js -->
<g id="edge28" class="edge">
<title>api/testDescriptor/APItestDescriptor.js&#45;&gt;api/testDescriptor/testDescriptor_dao.js</title>
<path fill="none" stroke="#000000" stroke-width="2" stroke-opacity="0.200000" d="M541.23,-633C547.73,-633 554.46,-633 561.11,-633"/>
<polygon fill="#000000" fill-opacity="0.200000" stroke="#000000" stroke-width="2" stroke-opacity="0.200000" points="561.18,-635.1 567.18,-633 561.18,-630.9 561.18,-635.1"/>
</g>
<!-- api/testDescriptor/testDescriptor_service.js -->
<g id="node25" class="node">
<title>api/testDescriptor/testDescriptor_service.js</title>
<g id="a_node25"><a xlink:href="api/testDescriptor/testDescriptor_service.js" xlink:title="testDescriptor_service.js">
<path fill="#ffffcc" stroke="black" d="M671,-672C671,-672 567,-672 567,-672 564,-672 561,-669 561,-666 561,-666 561,-660 561,-660 561,-657 564,-654 567,-654 567,-654 671,-654 671,-654 674,-654 677,-657 677,-660 677,-660 677,-666 677,-666 677,-669 674,-672 671,-672"/>
<text text-anchor="start" x="569" y="-660.8" font-family="Helvetica,sans-Serif" font-size="9.00">testDescriptor_service.js</text>
</a>
</g>
</g>
<!-- api/testDescriptor/APItestDescriptor.js&#45;&gt;api/testDescriptor/testDescriptor_service.js -->
<g id="edge29" class="edge">
<title>api/testDescriptor/APItestDescriptor.js&#45;&gt;api/testDescriptor/testDescriptor_service.js</title>
<path fill="none" stroke="#000000" stroke-width="2" stroke-opacity="0.200000" d="M531.2,-642C544.81,-645.29 560.33,-649.05 574.44,-652.46"/>
<polygon fill="#000000" fill-opacity="0.200000" stroke="#000000" stroke-width="2" stroke-opacity="0.200000" points="574.07,-654.53 580.39,-653.9 575.06,-650.45 574.07,-654.53"/>
</g>
<!-- api/testDescriptor/testDescriptor_service.js&#45;&gt;api/sku/sku_dao.js -->
<g id="edge30" class="edge">
<title>api/testDescriptor/testDescriptor_service.js&#45;&gt;api/sku/sku_dao.js</title>
<path fill="none" stroke="#000000" stroke-width="2" stroke-opacity="0.200000" d="M677.24,-654.73C680.11,-652.86 682.74,-650.64 685,-648 723.15,-603.57 728.27,-166.74 728.91,-78.49"/>
<polygon fill="#000000" fill-opacity="0.200000" stroke="#000000" stroke-width="2" stroke-opacity="0.200000" points="731.01,-78.33 728.95,-72.32 726.81,-78.3 731.01,-78.33"/>
</g>
<!-- api/testResult/APItestResult.js -->
<g id="node26" class="node">
<title>api/testResult/APItestResult.js</title>
<g id="a_node26"><a xlink:href="api/testResult/APItestResult.js" xlink:title="APItestResult.js">
<path fill="#ffffcc" stroke="black" d="M403,-402C403,-402 335,-402 335,-402 332,-402 329,-399 329,-396 329,-396 329,-390 329,-390 329,-387 332,-384 335,-384 335,-384 403,-384 403,-384 406,-384 409,-387 409,-390 409,-390 409,-396 409,-396 409,-399 406,-402 403,-402"/>
<text text-anchor="start" x="337" y="-390.8" font-family="Helvetica,sans-Serif" font-size="9.00">APItestResult.js</text>
</a>
</g>
</g>
<!-- api/testResult/APItestResult.js&#45;&gt;api/testResult/testResult_dao.js -->
<g id="edge31" class="edge">
<title>api/testResult/APItestResult.js&#45;&gt;api/testResult/testResult_dao.js</title>
<path fill="none" stroke="#000000" stroke-width="2" stroke-opacity="0.200000" d="M406.6,-402C419.99,-405.29 435.26,-409.05 449.14,-412.46"/>
<polygon fill="#000000" fill-opacity="0.200000" stroke="#000000" stroke-width="2" stroke-opacity="0.200000" points="448.67,-414.51 455,-413.9 449.68,-410.43 448.67,-414.51"/>
</g>
<!-- api/testResult/testResult_service.js -->
<g id="node27" class="node">
<title>api/testResult/testResult_service.js</title>
<g id="a_node27"><a xlink:href="api/testResult/testResult_service.js" xlink:title="testResult_service.js">
<path fill="#ffffcc" stroke="black" d="M537.5,-402C537.5,-402 448.5,-402 448.5,-402 445.5,-402 442.5,-399 442.5,-396 442.5,-396 442.5,-390 442.5,-390 442.5,-387 445.5,-384 448.5,-384 448.5,-384 537.5,-384 537.5,-384 540.5,-384 543.5,-387 543.5,-390 543.5,-390 543.5,-396 543.5,-396 543.5,-399 540.5,-402 537.5,-402"/>
<text text-anchor="start" x="450.5" y="-390.8" font-family="Helvetica,sans-Serif" font-size="9.00">testResult_service.js</text>
</a>
</g>
</g>
<!-- api/testResult/APItestResult.js&#45;&gt;api/testResult/testResult_service.js -->
<g id="edge32" class="edge">
<title>api/testResult/APItestResult.js&#45;&gt;api/testResult/testResult_service.js</title>
<path fill="none" stroke="#000000" stroke-width="2" stroke-opacity="0.200000" d="M409.27,-393C417.76,-393 426.9,-393 435.89,-393"/>
<polygon fill="#000000" fill-opacity="0.200000" stroke="#000000" stroke-width="2" stroke-opacity="0.200000" points="436.08,-395.1 442.08,-393 436.08,-390.9 436.08,-395.1"/>
</g>
<!-- api/testResult/testResult_service.js&#45;&gt;api/sku_item/sku_item_dao.js -->
<g id="edge33" class="edge">
<title>api/testResult/testResult_service.js&#45;&gt;api/sku_item/sku_item_dao.js</title>
<path fill="none" stroke="#000000" stroke-width="2" stroke-opacity="0.200000" d="M536.32,-383.97C542.76,-380.84 548.69,-376.65 553,-371 564.92,-355.39 551.16,-299.99 561,-283 567.98,-270.95 580.21,-261.65 591.56,-255.06"/>
<polygon fill="#000000" fill-opacity="0.200000" stroke="#000000" stroke-width="2" stroke-opacity="0.200000" points="592.79,-256.78 597.03,-252.04 590.76,-253.1 592.79,-256.78"/>
</g>
<!-- api/testResult/testResult_service.js&#45;&gt;api/testDescriptor/testDescriptor_dao.js -->
<g id="edge34" class="edge">
<title>api/testResult/testResult_service.js&#45;&gt;api/testDescriptor/testDescriptor_dao.js</title>
<path fill="none" stroke="#000000" stroke-width="2" stroke-opacity="0.200000" d="M543.77,-401.33C547.14,-403.15 550.27,-405.35 553,-408 613.32,-466.41 618.62,-576.99 618.41,-617.57"/>
<polygon fill="#000000" fill-opacity="0.200000" stroke="#000000" stroke-width="2" stroke-opacity="0.200000" points="616.31,-617.65 618.34,-623.67 620.51,-617.7 616.31,-617.65"/>
</g>
<!-- api/user/user_api.js -->
<g id="node28" class="node">
<title>api/user/user_api.js</title>
<g id="a_node28"><a xlink:href="api/user/user_api.js" xlink:title="user_api.js">
<path fill="#ffffcc" stroke="black" d="M150.5,-402C150.5,-402 100.5,-402 100.5,-402 97.5,-402 94.5,-399 94.5,-396 94.5,-396 94.5,-390 94.5,-390 94.5,-387 97.5,-384 100.5,-384 100.5,-384 150.5,-384 150.5,-384 153.5,-384 156.5,-387 156.5,-390 156.5,-390 156.5,-396 156.5,-396 156.5,-399 153.5,-402 150.5,-402"/>
<text text-anchor="start" x="102.5" y="-390.8" font-family="Helvetica,sans-Serif" font-size="9.00">user_api.js</text>
</a>
</g>
</g>
<!-- api/user/user_dao.js -->
<g id="node29" class="node">
<title>api/user/user_dao.js</title>
<g id="a_node29"><a xlink:href="api/user/user_dao.js" xlink:title="user_dao.js">
<path fill="#ffffcc" stroke="black" d="M268,-402C268,-402 215,-402 215,-402 212,-402 209,-399 209,-396 209,-396 209,-390 209,-390 209,-387 212,-384 215,-384 215,-384 268,-384 268,-384 271,-384 274,-387 274,-390 274,-390 274,-396 274,-396 274,-399 271,-402 268,-402"/>
<text text-anchor="start" x="217" y="-390.8" font-family="Helvetica,sans-Serif" font-size="9.00">user_dao.js</text>
</a>
</g>
</g>
<!-- api/user/user_api.js&#45;&gt;api/user/user_dao.js -->
<g id="edge35" class="edge">
<title>api/user/user_api.js&#45;&gt;api/user/user_dao.js</title>
<path fill="none" stroke="#000000" stroke-width="2" stroke-opacity="0.200000" d="M156.75,-393C170.83,-393 187.73,-393 202.65,-393"/>
<polygon fill="#000000" fill-opacity="0.200000" stroke="#000000" stroke-width="2" stroke-opacity="0.200000" points="202.91,-395.1 208.91,-393 202.91,-390.9 202.91,-395.1"/>
</g>
<!-- api/user/users_service.js -->
<g id="node30" class="node">
<title>api/user/users_service.js</title>
<g id="a_node30"><a xlink:href="api/user/users_service.js" xlink:title="users_service.js">
<path fill="#ffffcc" stroke="black" d="M277,-432C277,-432 206,-432 206,-432 203,-432 200,-429 200,-426 200,-426 200,-420 200,-420 200,-417 203,-414 206,-414 206,-414 277,-414 277,-414 280,-414 283,-417 283,-420 283,-420 283,-426 283,-426 283,-429 280,-432 277,-432"/>
<text text-anchor="start" x="208" y="-420.8" font-family="Helvetica,sans-Serif" font-size="9.00">users_service.js</text>
</a>
</g>
</g>
<!-- api/user/user_api.js&#45;&gt;api/user/users_service.js -->
<g id="edge36" class="edge">
<title>api/user/user_api.js&#45;&gt;api/user/users_service.js</title>
<path fill="none" stroke="#000000" stroke-width="2" stroke-opacity="0.200000" d="M156.75,-400.96C170.03,-404.45 185.8,-408.61 200.07,-412.36"/>
<polygon fill="#000000" fill-opacity="0.200000" stroke="#000000" stroke-width="2" stroke-opacity="0.200000" points="199.74,-414.44 206.08,-413.94 200.81,-410.38 199.74,-414.44"/>
</g>
<!-- server.js -->
<g id="node31" class="node">
<title>server.js</title>
<g id="a_node31"><a xlink:href="server.js" xlink:title="server.js">
<path fill="#ffffcc" stroke="black" d="M48,-357C48,-357 6,-357 6,-357 3,-357 0,-354 0,-351 0,-351 0,-345 0,-345 0,-342 3,-339 6,-339 6,-339 48,-339 48,-339 51,-339 54,-342 54,-345 54,-345 54,-351 54,-351 54,-354 51,-357 48,-357"/>
<text text-anchor="middle" x="27" y="-345.8" font-family="Helvetica,sans-Serif" font-size="9.00">server.js</text>
</a>
</g>
</g>
<!-- server.js&#45;&gt;api/item/APIitem.js -->
<g id="edge37" class="edge">
<title>server.js&#45;&gt;api/item/APIitem.js</title>
<path fill="none" stroke="#000000" stroke-width="2" stroke-opacity="0.200000" d="M54.28,-341.38C56.88,-340.86 59.48,-340.38 62,-340 208.34,-317.65 385.22,-311.33 458.1,-309.61"/>
<polygon fill="#000000" fill-opacity="0.200000" stroke="#000000" stroke-width="2" stroke-opacity="0.200000" points="458.46,-311.71 464.41,-309.47 458.37,-307.51 458.46,-311.71"/>
</g>
<!-- server.js&#45;&gt;api/order/APIInternalOrder.js -->
<g id="edge38" class="edge">
<title>server.js&#45;&gt;api/order/APIInternalOrder.js</title>
<path fill="none" stroke="#000000" stroke-width="2" stroke-opacity="0.200000" d="M54.19,-348.94C91.42,-350.84 156.9,-356.5 173,-373 200.62,-401.29 161.55,-429.94 186,-461 189.18,-465.03 193.21,-468.33 197.64,-471.03"/>
<polygon fill="#000000" fill-opacity="0.200000" stroke="#000000" stroke-width="2" stroke-opacity="0.200000" points="196.72,-472.92 202.99,-473.92 198.71,-469.22 196.72,-472.92"/>
</g>
<!-- server.js&#45;&gt;api/order/APIRestockOrder.js -->
<g id="edge39" class="edge">
<title>server.js&#45;&gt;api/order/APIRestockOrder.js</title>
<path fill="none" stroke="#000000" stroke-width="2" stroke-opacity="0.200000" d="M28.45,-357.05C30.29,-389.98 38.24,-502.76 62,-528 93.82,-561.79 146.98,-571.73 187.03,-574"/>
<polygon fill="#000000" fill-opacity="0.200000" stroke="#000000" stroke-width="2" stroke-opacity="0.200000" points="187.25,-576.11 193.34,-574.3 187.45,-571.91 187.25,-576.11"/>
</g>
<!-- server.js&#45;&gt;api/order/return_order_api.js -->
<g id="edge40" class="edge">
<title>server.js&#45;&gt;api/order/return_order_api.js</title>
<path fill="none" stroke="#000000" stroke-width="2" stroke-opacity="0.200000" d="M28.96,-357.25C31.44,-377.58 39.5,-427 62,-461 72.8,-477.32 90.22,-491.21 103.93,-500.52"/>
<polygon fill="#000000" fill-opacity="0.200000" stroke="#000000" stroke-width="2" stroke-opacity="0.200000" points="103.01,-502.42 109.18,-503.98 105.33,-498.92 103.01,-502.42"/>
</g>
<!-- server.js&#45;&gt;api/position/APIposition.js -->
<g id="edge41" class="edge">
<title>server.js&#45;&gt;api/position/APIposition.js</title>
<path fill="none" stroke="#000000" stroke-width="2" stroke-opacity="0.200000" d="M30.4,-338.55C34.49,-324.4 44.14,-297.78 62,-283 179.27,-185.97 367.65,-161.33 450.56,-155.1"/>
<polygon fill="#000000" fill-opacity="0.200000" stroke="#000000" stroke-width="2" stroke-opacity="0.200000" points="450.99,-157.17 456.82,-154.65 450.69,-152.98 450.99,-157.17"/>
</g>
<!-- server.js&#45;&gt;api/sku/APIsku.js -->
<g id="edge43" class="edge">
<title>server.js&#45;&gt;api/sku/APIsku.js</title>
<path fill="none" stroke="#000000" stroke-width="2" stroke-opacity="0.200000" d="M28.31,-338.72C29.47,-315.7 35.07,-254.89 62,-214 117,-130.48 140.49,-77 240.5,-77 240.5,-77 240.5,-77 370,-77 447.59,-77 538.62,-70.08 585.87,-65.97"/>
<polygon fill="#000000" fill-opacity="0.200000" stroke="#000000" stroke-width="2" stroke-opacity="0.200000" points="586.17,-68.06 591.96,-65.44 585.8,-63.87 586.17,-68.06"/>
</g>
<!-- server.js&#45;&gt;api/sku_item/APIsku_item.js -->
<g id="edge42" class="edge">
<title>server.js&#45;&gt;api/sku_item/APIsku_item.js</title>
<path fill="none" stroke="#000000" stroke-width="2" stroke-opacity="0.200000" d="M37.96,-338.79C44.36,-333.37 53.13,-326.85 62,-323 194.92,-265.39 368.54,-249.22 448.37,-244.71"/>
<polygon fill="#000000" fill-opacity="0.200000" stroke="#000000" stroke-width="2" stroke-opacity="0.200000" points="448.54,-246.81 454.42,-244.39 448.32,-242.61 448.54,-246.81"/>
</g>
<!-- server.js&#45;&gt;api/testDescriptor/APItestDescriptor.js -->
<g id="edge44" class="edge">
<title>server.js&#45;&gt;api/testDescriptor/APItestDescriptor.js</title>
<path fill="none" stroke="#000000" stroke-width="2" stroke-opacity="0.200000" d="M27.7,-357.09C26.53,-399.32 23.99,-575.82 62,-611 173.35,-714.05 378.42,-667.53 458.62,-643.83"/>
<polygon fill="#000000" fill-opacity="0.200000" stroke="#000000" stroke-width="2" stroke-opacity="0.200000" points="459.48,-645.76 464.63,-642.02 458.27,-641.74 459.48,-645.76"/>
</g>
<!-- server.js&#45;&gt;api/testResult/APItestResult.js -->
<g id="edge45" class="edge">
<title>server.js&#45;&gt;api/testResult/APItestResult.js</title>
<path fill="none" stroke="#000000" stroke-width="2" stroke-opacity="0.200000" d="M54.35,-346.3C56.93,-346.18 59.52,-346.07 62,-346 111.31,-344.55 123.95,-340.72 173,-346 229.08,-352.03 242.27,-359.35 297,-373 308.22,-375.8 320.35,-379.11 331.36,-382.23"/>
<polygon fill="#000000" fill-opacity="0.200000" stroke="#000000" stroke-width="2" stroke-opacity="0.200000" points="331.01,-384.31 337.35,-383.93 332.16,-380.27 331.01,-384.31"/>
</g>
<!-- server.js&#45;&gt;api/user/user_api.js -->
<g id="edge46" class="edge">
<title>server.js&#45;&gt;api/user/user_api.js</title>
<path fill="none" stroke="#000000" stroke-width="2" stroke-opacity="0.200000" d="M39.81,-357.09C46.15,-361.68 54.24,-367.09 62,-371 70.34,-375.2 79.68,-378.95 88.55,-382.11"/>
<polygon fill="#000000" fill-opacity="0.200000" stroke="#000000" stroke-width="2" stroke-opacity="0.200000" points="87.93,-384.12 94.29,-384.11 89.31,-380.16 87.93,-384.12"/>
</g>
</g>
</svg>
